<?xml version="1.0" encoding="utf-8"?>
<!-- Svg Vector Icons : http://www.onlinewebfonts.com/icon -->
<!DOCTYPE svg PUBLIC "-//W3C//DTD SVG 1.1//EN" "http://www.w3.org/Graphics/SVG/1.1/DTD/svg11.dtd">
<svg version="1.1" xmlns="http://www.w3.org/2000/svg" xmlns:xlink="http://www.w3.org/1999/xlink" x="0px" y="0px" viewBox="0 0 256 256" enable-background="new 0 0 256 256" xml:space="preserve">
<metadata> Svg Vector Icons : http://www.onlinewebfonts.com/icon </metadata>
<g><g><path fill="#000000" d="M153.5,36.3c20.9-14.1,33-33.4,45.2-23.6c6.1,4.9,5.6,16.2,11.6,45c1.9,9,6.1,12.1,10.8,19.6c0.9,1.5,1.7,2.9,2.3,3.9c7.3,12,10.5,26.9,11.3,40c3.9,60.2-77,108.3-106.2,124.8c-1.8-3.5-0.2-17.4-1.3-28c-62.7,0.4-104.4-46-106.2-92.3c-0.6-15.1,3.5-31.1,10.6-43.2c0.9-1.6,2.2-3.6,3.6-5.6c5.1-7.3,7.4-10.2,9.4-19.1c4.5-20.3,6.7-42.5,13.6-46.3c11.6-6.4,28.8,14.8,46.2,26.5c5.2,3.5,6.7,3.7,12.8,3.7c6.5,0,16.2,0,22.9,0C146.4,41.8,148.2,39.9,153.5,36.3L153.5,36.3z"/></g></g>
</svg>